<svg width="100" height="33" xmlns="http://www.w3.org/2000/svg">
 <style type="text/css">.st0{fill:#FF9900;}
	.st1{fill:#333333;}</style>

 <g>
  <title>background</title>
  <rect fill="none" id="canvas_background" height="35" width="102" y="-1" x="-1"/>
 </g>
 <g>
  <title>Layer 1</title>
  <path id="svg_1" d="m35.754,25.28825c-3.348,2.485 -8.204,3.81 -12.389,3.81c-5.859,0 -11.133,-2.171 -15.126,-5.806c-0.314,-0.288 -0.035,-0.671 0.349,-0.453c4.307,2.52 9.634,4.037 15.135,4.037c3.714,0 7.794,-0.776 11.543,-2.38c0.567,-0.228 1.037,0.391 0.488,0.792" class="st0"/>
  <path id="svg_2" d="m37.149,23.69325c-0.427,-0.549 -2.833,-0.262 -3.915,-0.131c-0.331,0.035 -0.384,-0.253 -0.087,-0.453c1.918,-1.351 5.057,-0.968 5.423,-0.506c0.366,0.453 -0.096,3.618 -1.892,5.135c-0.279,0.235 -0.541,0.105 -0.418,-0.201c0.41,-1.019 1.316,-3.295 0.889,-3.844" class="st0"/>
  <path id="svg_3" d="m33.313,13.54525l0,-1.316c0,-0.201 0.148,-0.331 0.331,-0.331l5.867,0c0.183,0 0.34,0.139 0.34,0.331l0,1.125c0,0.192 -0.157,0.436 -0.445,0.828l-3.034,4.359c1.133,-0.026 2.319,0.139 3.339,0.724c0.235,0.131 0.296,0.323 0.314,0.514l0,1.404c0,0.192 -0.209,0.418 -0.436,0.296c-1.805,-0.95 -4.202,-1.055 -6.199,0.009c-0.201,0.113 -0.418,-0.105 -0.418,-0.305l0,-1.325c0,-0.209 0,-0.575 0.218,-0.898l3.522,-5.074l-3.06,0c-0.191,-0.01 -0.339,-0.141 -0.339,-0.341m-21.395,8.213l-1.787,0c-0.166,-0.009 -0.305,-0.139 -0.323,-0.296l0,-9.207c0,-0.183 0.148,-0.331 0.34,-0.331l1.665,0c0.174,0.009 0.314,0.139 0.323,0.305l0,1.203l0.035,0c0.436,-1.16 1.247,-1.7 2.345,-1.7c1.116,0 1.813,0.541 2.319,1.7c0.436,-1.16 1.412,-1.7 2.467,-1.7c0.75,0 1.569,0.305 2.066,1.011c0.567,0.776 0.453,1.892 0.453,2.886l-0.009,5.806c0,0.183 -0.148,0.331 -0.34,0.331l-1.779,0c-0.174,-0.009 -0.314,-0.157 -0.314,-0.331l0,-4.874c0,-0.392 0.035,-1.36 -0.052,-1.726c-0.131,-0.619 -0.532,-0.793 -1.046,-0.793c-0.436,0 -0.881,0.288 -1.064,0.759c-0.183,0.462 -0.166,1.238 -0.166,1.761l0,4.865c0,0.183 -0.157,0.331 -0.349,0.331l-1.779,0c-0.183,-0.009 -0.323,-0.157 -0.323,-0.331l0,-4.874c0,-1.029 0.166,-2.537 -1.099,-2.537c-1.282,0 -1.229,1.473 -1.229,2.537l0,4.874c-0.005,0.191 -0.162,0.331 -0.354,0.331m32.99,-8.152c-1.316,0 -1.395,1.805 -1.395,2.929s-0.017,3.522 1.378,3.522c1.378,0 1.447,-1.935 1.447,-3.121c0,-0.776 -0.035,-1.709 -0.262,-2.441c-0.2,-0.636 -0.601,-0.889 -1.168,-0.889m-0.017,-1.875c2.642,0 4.08,2.284 4.08,5.187c0,2.807 -1.578,5.039 -4.08,5.039c-2.598,0 -4.01,-2.284 -4.01,-5.126c0,-2.876 1.429,-5.1 4.01,-5.1m7.515,10.027l-1.779,0c-0.183,-0.009 -0.323,-0.157 -0.323,-0.331l0,-9.207c0.017,-0.166 0.166,-0.296 0.34,-0.296l1.656,0c0.157,0.009 0.288,0.113 0.323,0.253l0,1.412l0.035,0c0.497,-1.264 1.194,-1.857 2.432,-1.857c0.793,0 1.587,0.288 2.084,1.081c0.471,0.741 0.471,1.979 0.471,2.868l0,5.789c-0.017,0.166 -0.166,0.288 -0.34,0.288l-1.787,0c-0.166,-0.009 -0.296,-0.131 -0.314,-0.288l0,-4.996c0,-1.011 0.122,-2.476 -1.116,-2.476c-0.436,0 -0.837,0.296 -1.029,0.732c-0.253,0.567 -0.279,1.125 -0.279,1.744l0,4.952c-0.025,0.192 -0.182,0.332 -0.374,0.332m-20.593,-1.692c-0.323,-0.453 -0.671,-0.82 -0.671,-1.665l0,-2.79c0,-1.186 0.087,-2.267 -0.785,-3.086c-0.689,-0.654 -1.822,-0.889 -2.694,-0.889c-1.691,0 -3.583,0.645 -3.984,2.746c-0.044,0.235 0.122,0.349 0.27,0.384l1.726,0.183c0.157,-0.009 0.279,-0.166 0.305,-0.331c0.157,-0.724 0.759,-1.072 1.439,-1.072c0.366,0 0.785,0.131 1.003,0.462c0.253,0.366 0.218,0.872 0.218,1.299l0,0.235c-1.037,0.113 -2.389,0.192 -3.357,0.619c-1.116,0.488 -1.901,1.473 -1.901,2.929c0,1.866 1.168,2.799 2.668,2.799c1.273,0 1.97,-0.305 2.947,-1.308c0.323,0.471 0.427,0.697 1.02,1.194c0.131,0.07 0.305,0.07 0.418,-0.044c0.357,-0.305 1.003,-0.881 1.378,-1.186c0.14,-0.121 0.114,-0.313 0,-0.479l0,0zm-3.504,-0.802c-0.288,0.506 -0.732,0.811 -1.229,0.811c-0.689,0 -1.09,-0.523 -1.09,-1.299c0,-1.526 1.36,-1.805 2.65,-1.805l0,0.392c0,0.698 0.017,1.282 -0.331,1.901l0,0zm-19.878,0.802c-0.323,-0.453 -0.671,-0.82 -0.671,-1.665l0,-2.79c0,-1.186 0.087,-2.267 -0.785,-3.086c-0.68,-0.654 -1.813,-0.889 -2.685,-0.889c-1.7,0 -3.592,0.645 -3.993,2.746c-0.044,0.235 0.122,0.349 0.262,0.384l1.735,0.183c0.157,-0.009 0.27,-0.166 0.305,-0.331c0.148,-0.724 0.759,-1.072 1.439,-1.072c0.366,0 0.785,0.131 1.003,0.462c0.253,0.366 0.218,0.872 0.218,1.299l0,0.235c-1.037,0.113 -2.389,0.192 -3.357,0.619c-1.117,0.488 -1.902,1.473 -1.902,2.929c0,1.866 1.168,2.799 2.668,2.799c1.273,0 1.97,-0.305 2.947,-1.308c0.323,0.471 0.427,0.697 1.02,1.194c0.131,0.07 0.305,0.07 0.418,-0.044c0.357,-0.305 1.003,-0.881 1.378,-1.186c0.139,-0.121 0.113,-0.313 0,-0.479l0,0zm-3.514,-0.802c-0.288,0.506 -0.732,0.811 -1.238,0.811c-0.689,0 -1.081,-0.523 -1.081,-1.299c0,-1.526 1.36,-1.805 2.65,-1.805l0,0.392c0,0.698 0.018,1.282 -0.331,1.901l0,0zm77.193,0.567c0.017,-0.044 0.078,-0.078 0.122,-0.078c0.044,0 0.105,0.017 0.166,0.044c0.889,0.445 1.787,0.68 2.476,0.68c0.976,0 1.622,-0.584 1.622,-1.447c0,-0.68 -0.349,-1.081 -1.299,-1.526c-1.36,-0.619 -1.787,-0.846 -2.275,-1.247c-0.628,-0.488 -0.933,-1.107 -0.933,-1.892c0,-1.622 1.282,-2.79 3.086,-2.79c1.055,0 2.616,0.506 2.616,0.846c0,0.044 0,0.044 -0.044,0.139l-0.366,0.741c-0.044,0.061 -0.122,0.122 -0.183,0.122c-0.044,0 -0.078,-0.017 -0.166,-0.044c-0.767,-0.357 -1.36,-0.523 -1.909,-0.523c-0.976,0 -1.543,0.497 -1.543,1.343c0,0.384 0.139,0.741 0.401,0.985c0.288,0.262 0.288,0.262 2.127,1.142c1.5,0.724 2.031,1.386 2.031,2.589c0,1.7 -1.299,2.851 -3.226,2.851c-1.011,0 -2.171,-0.305 -2.999,-0.785c-0.105,-0.061 -0.122,-0.096 -0.122,-0.183c0,-0.044 0,-0.044 0.017,-0.078l0.401,-0.889l0,0zm7.646,-7.559c0,-0.201 0.017,-0.244 0.227,-0.244l1.072,0c0.183,0 0.227,0.044 0.227,0.244l0,9.137c0,0.201 -0.166,0.349 -0.349,0.349l-0.854,0c-0.183,0 -0.314,-0.157 -0.314,-0.366l-0.009,-9.12l0,0zm9.791,1.526c-0.061,0.105 -0.105,0.139 -0.166,0.139c-0.044,0 -0.105,-0.017 -0.166,-0.078c-0.994,-0.732 -1.395,-0.915 -2.092,-0.915c-1.622,0 -2.45,1.282 -2.45,3.775c0,2.537 0.75,3.793 2.249,3.793c0.811,0 1.238,-0.183 2.389,-0.994c0.061,-0.044 0.105,-0.061 0.139,-0.061c0.061,0 0.105,0.044 0.139,0.122l0.305,0.767c0.017,0.061 0.061,0.183 0.061,0.201c0,0.105 -0.105,0.227 -0.323,0.384c-0.828,0.61 -1.848,0.95 -2.842,0.95c-2.415,0 -3.827,-1.848 -3.827,-4.926c0,-3.322 1.561,-5.371 4.115,-5.371c0.872,0 1.726,0.262 2.476,0.793c0.323,0.227 0.445,0.366 0.445,0.506l-0.017,0.122l-0.435,0.793l0,0zm-27.96,1.028c0,-1.151 0,-3.095 -2.607,-3.095c-1.02,0 -1.901,0.689 -2.345,1.552c-0.314,-1.116 -1.003,-1.552 -2.145,-1.552c-0.942,0 -1.944,0.488 -2.371,1.351l0,-0.793c0,-0.174 -0.139,-0.323 -0.323,-0.331l-0.907,0c-0.183,0 -0.323,0.131 -0.34,0.296l0,9.163c0,0.174 0.139,0.314 0.323,0.331l0.898,0c0.183,0 0.331,-0.131 0.34,-0.296l0,-6.486l0,0.052c0,-1.534 1.133,-1.97 1.848,-1.97c1.09,0 1.29,0.889 1.325,1.613l0,6.827c0.035,0.148 0.174,0.262 0.357,0.279l0.872,0c0.174,0 0.323,-0.113 0.34,-0.244l0,-6.548c0.026,-1.491 1.133,-1.927 1.848,-1.927c1.116,0 1.299,0.924 1.325,1.665l0,6.774c0,0.131 0.122,0.235 0.27,0.262l0,0.009l0.95,0c0.183,0 0.323,-0.105 0.34,-0.244l0,-6.688l0.002,0zm2.031,5.484c0.192,0.506 0.924,1.552 2.406,1.552c1.386,0 2.197,-0.488 2.616,-1.351l0,0.793c0,0.174 0.139,0.323 0.314,0.331l0.881,0c0.174,0 0.323,-0.131 0.34,-0.296l0,-9.172c0,-0.174 -0.139,-0.323 -0.323,-0.331l-0.881,0c-0.174,0 -0.323,0.131 -0.34,0.296l0,6.486l0,-0.052c0,1.534 -1.691,1.97 -2.398,1.97c-1.072,0 -1.264,-0.889 -1.299,-1.613l0,-6.827c-0.035,-0.148 -0.174,-0.262 -0.349,-0.27l-0.854,0c-0.174,0 -0.323,0.113 -0.331,0.244l0,6.548c0,0.001 0.035,1.178 0.218,1.692m17.437,-12.362l-1.072,0c-0.201,0 -0.227,0.035 -0.227,0.218l0,1.081c0,0.183 0.044,0.218 0.227,0.218l1.072,0c0.201,0 0.227,-0.035 0.227,-0.218l0,-1.072c0,-0.184 -0.044,-0.227 -0.227,-0.227" class="st1"/>
  <path id="svg_4" d="m60.48,7.93925l8.518,0l0,1.5l-8.518,0l0,-1.5zm0,-2.249l8.518,0l0,1.5l-8.518,0l0,-1.5zm0,-2.241l8.518,0l0,1.5l-8.518,0l0,-1.5zm0,-2.249l8.518,0l0,1.5l-8.518,0l0,-1.5zm9.258,6.739l8.518,0l0,1.5l-8.518,0l0,-1.5zm0,-2.249l8.518,0l0,1.5l-8.518,0l0,-1.5zm9.268,2.249l8.518,0l0,1.5l-8.518,0l0,-1.5zm0,-2.249l8.518,0l0,1.5l-8.518,0l0,-1.5zm0,-2.241l8.518,0l0,1.5l-8.518,0l0,-1.5z" class="st0"/>
 </g>
</svg>